<svg version="1.1" id="Layer_1" xmlns="http://www.w3.org/2000/svg" xmlns:xlink="http://www.w3.org/1999/xlink" x="0px" y="0px"
	 width="100%" viewBox="0 0 1268 146" enable-background="new 0 0 1268 146" xml:space="preserve">
<path fill="#000000" opacity="1.000000" stroke="none" 
	d="
M1269.000000,144.000000 
	C1269.000000,144.999435 1269.000000,145.998886 1269.000000,146.999161 
	C1011.644043,147.000000 754.288025,147.000000 496.396332,146.690430 
	C496.242950,145.897888 496.625305,145.414932 497.397369,144.949463 
	C503.835358,144.237061 509.986328,143.977173 515.911316,142.682739 
	C529.678528,139.675034 537.968018,132.054565 539.705688,119.994392 
	C541.160156,109.899651 541.041870,99.508804 540.851746,89.263329 
	C540.584229,74.842964 531.903015,64.715073 517.831421,60.798538 
	C506.438354,57.627506 494.825592,56.949886 482.899780,56.606922 
	C474.405823,56.163441 466.119629,56.113636 457.658630,56.019829 
	C457.483826,55.975830 457.136017,56.070789 456.947052,55.660145 
	C445.522705,55.212734 434.287323,55.175972 422.605347,55.107841 
	C420.997650,55.025333 419.834564,55.002197 418.675812,54.918690 
	C407.965576,54.146809 406.597900,50.406265 408.438751,40.941841 
	C408.982361,38.146870 413.952515,36.212868 417.372864,33.936020 
	C437.549103,33.945873 457.246643,33.904015 477.330475,33.894577 
	C482.717926,34.645786 488.057587,34.629028 490.997986,40.418694 
	C492.057159,41.222622 493.032837,41.941620 494.012787,41.947453 
	C506.931061,42.024353 519.850098,42.023949 532.768433,41.957520 
	C533.778809,41.952320 534.785889,41.310291 535.798645,40.552925 
	C535.532288,37.687222 535.121460,35.238853 535.015930,32.777393 
	C534.592102,22.891687 531.084900,14.533866 522.155029,9.647535 
	C517.072754,6.866599 511.337952,5.278194 506.060547,2.724062 
	C525.688904,2.202333 545.153748,2.101902 564.618713,2.057238 
	C565.126892,2.056072 565.636597,2.663491 566.097229,3.450028 
	C566.048889,15.102791 566.048889,26.292618 566.048889,37.837662 
	C568.099731,37.837662 569.546570,37.837662 571.260925,37.893627 
	C571.710571,37.956577 571.892639,37.963558 572.203125,38.394699 
	C588.428711,38.818855 604.525940,38.818855 621.002380,38.818855 
	C621.002380,40.693314 621.002625,41.982353 621.002441,43.271389 
	C620.998657,69.245407 620.979614,95.219444 621.021851,121.193382 
	C621.024963,123.114700 621.467834,125.035294 621.813477,127.415375 
	C621.920715,133.118607 621.920715,138.362671 621.920715,143.852219 
	C636.864441,143.852219 650.963257,143.852219 665.459839,143.689941 
	C665.903076,108.368637 665.948669,73.209618 666.249695,38.015144 
	C666.672607,37.940559 666.840088,37.901417 667.473511,37.910736 
	C685.631409,37.925045 703.323364,37.890888 721.407227,37.681465 
	C721.816406,25.960846 721.833618,14.415485 722.105103,2.510968 
	C724.187866,2.104105 726.016418,2.014750 727.844910,2.014644 
	C842.089294,2.008027 956.333618,2.013338 1070.578003,1.966766 
	C1072.385498,1.966029 1074.192627,1.336239 1076.000000,1.000004 
	C1140.250000,1.000000 1204.500000,1.000000 1269.000000,1.000000 
	C1269.000000,47.689014 1269.000000,94.378471 1268.644165,141.638229 
	C1267.566284,141.546829 1266.626221,141.012604 1266.153931,140.204865 
	C1252.376221,116.632988 1238.753784,92.969612 1224.873169,69.458710 
	C1212.815796,49.036057 1200.396484,28.827129 1188.329590,8.410045 
	C1186.111572,4.657128 1183.905396,2.395594 1179.096802,2.889988 
	C1173.988770,3.415185 1168.764526,2.745773 1163.632324,3.137806 
	C1161.676514,3.287205 1159.094238,4.446051 1158.074463,5.988876 
	C1154.343140,11.633870 1151.153564,17.636707 1147.752319,23.500275 
	C1142.299194,32.901230 1136.927979,42.351295 1131.361816,51.684959 
	C1123.271729,65.250725 1115.009033,78.713303 1106.875732,92.253479 
	C1098.516724,106.169540 1090.200439,120.111626 1081.922363,134.076004 
	C1080.122192,137.112793 1078.563110,140.292557 1076.558350,144.030609 
	C1083.406006,144.030609 1089.239258,143.776459 1095.036743,144.122116 
	C1098.752686,144.343674 1100.554565,142.798172 1102.231567,139.731049 
	C1106.385620,132.133804 1110.806885,124.674881 1115.384277,117.324539 
	C1116.137573,116.114899 1118.199829,115.146988 1119.703857,115.077667 
	C1126.182739,114.779022 1132.678955,114.856796 1139.625977,114.840935 
	C1147.407959,114.924637 1154.732788,114.973366 1162.057739,115.003571 
	C1184.372192,115.095604 1206.686646,115.180481 1229.100830,115.590744 
	C1234.059692,124.172432 1238.786621,132.514832 1243.890625,140.619751 
	C1244.901123,142.224411 1247.310303,143.769653 1249.159424,143.876923 
	C1255.753052,144.259399 1262.383545,144.010147 1269.000000,144.000000 
M939.558899,128.161713 
	C937.736633,128.107651 935.914429,128.008011 934.092102,128.006271 
	C899.722107,127.973457 865.352173,127.952217 830.978516,128.023636 
	C830.978516,128.023636 831.073303,128.032425 831.007080,127.091141 
	C831.004944,87.428879 831.013855,47.766594 830.961609,8.104392 
	C830.959412,6.445975 830.386780,4.788310 829.138977,3.026784 
	C823.408752,3.065510 817.678528,3.104236 811.166809,3.492061 
	C811.113342,3.987686 811.013245,4.483301 811.013123,4.978942 
	C811.003723,50.130058 810.994812,95.281189 811.039978,140.432251 
	C811.041138,141.585541 811.641541,142.738220 812.776855,144.002823 
	C813.868835,143.953491 814.960754,143.904160 816.976868,143.966873 
	C854.632202,143.931320 892.287476,143.895767 930.841370,143.999649 
	C933.561584,143.967682 936.281860,143.935715 939.782715,143.547516 
	C939.815186,138.686188 939.847656,133.824875 939.558899,128.161713 
M996.023315,18.976797 
	C996.023315,18.976797 995.927307,18.973658 995.995056,19.914452 
	C995.997070,59.591541 995.987732,99.268646 996.040955,138.945679 
	C996.043152,140.592087 996.631592,142.237701 997.882446,144.007828 
	C1003.603271,143.968536 1009.324036,143.929245 1015.844543,143.559738 
	C1015.896667,141.736420 1015.992981,139.913116 1015.994446,138.089767 
	C1016.026367,98.385895 1016.047607,58.682022 1015.977844,18.977503 
	C1015.977844,18.977503 1015.972107,19.070343 1016.913208,19.010080 
	C1038.934204,19.006590 1060.955322,19.035671 1082.975708,18.917713 
	C1084.280151,18.910725 1085.578247,17.722012 1086.972046,16.149250 
	C1086.981323,14.318525 1086.997803,12.487802 1086.998413,10.657074 
	C1087.000732,3.000293 1086.999023,2.998697 1079.482300,2.998662 
	C1030.050293,2.998430 980.618408,2.998942 931.186462,2.999210 
	C929.254944,2.999220 927.323425,2.999211 925.111694,2.999211 
	C925.111694,8.463415 925.111694,13.259145 925.425110,18.863941 
	C948.958618,18.933580 972.492065,19.003220 996.023315,18.976797 
z"/>
<path fill="#000000" opacity="1.000000" stroke="none" 
	d="
M400.000000,147.000000 
	C268.330811,147.000000 136.661652,147.006821 4.992560,146.898392 
	C3.736994,146.897369 0.686868,148.948395 1.314258,144.350967 
	C2.085253,143.748764 2.541991,143.795593 3.464117,143.893616 
	C16.947367,143.917908 29.965231,143.891006 43.305862,143.897888 
	C44.059082,143.898361 44.489536,143.865021 45.348946,143.724976 
	C45.889488,127.740829 46.001076,111.863396 46.314957,95.997482 
	C46.517250,96.009003 46.913754,95.925285 47.393177,95.954338 
	C76.013245,95.988327 104.153923,96.008583 132.294464,95.956123 
	C133.810898,95.953300 135.326187,95.340302 136.889557,94.544212 
	C136.937119,83.846779 136.937119,73.616478 136.937119,63.131001 
	C106.471481,63.131001 76.749542,63.131001 46.777065,63.078461 
	C46.356709,63.009003 46.186893,62.992077 46.007751,62.509064 
	C46.048763,53.683655 46.099106,45.324322 46.332455,36.990005 
	C46.515465,37.015015 46.875408,36.931858 47.357674,36.958298 
	C81.563469,36.946476 115.286995,36.908215 149.423676,36.729973 
	C149.839264,25.383974 149.841721,14.177954 150.075287,2.592093 
	C171.584061,2.147377 192.861725,2.073483 214.139404,2.058661 
	C214.817932,2.058188 215.496902,2.664335 216.085419,3.178016 
	C215.995193,3.368343 215.898193,3.778294 215.632385,3.895240 
	C215.251175,4.359384 215.135757,4.706582 214.854828,5.362729 
	C209.913208,14.051155 204.974060,22.342737 200.398376,30.830265 
	C193.139938,44.294041 186.213104,57.936478 178.966599,71.406830 
	C175.636108,77.597771 171.678513,83.451874 168.361023,89.649162 
	C162.231277,101.099884 156.355972,112.686943 150.390457,124.225380 
	C147.890381,129.061005 145.430573,133.917480 142.639481,138.948395 
	C141.707367,140.602325 141.088211,142.072357 140.284531,143.980453 
	C156.026123,143.980453 171.275604,144.088211 186.517899,143.806808 
	C187.975281,143.779907 189.387848,141.325317 190.990540,139.684158 
	C193.334106,135.212540 195.577255,131.088333 197.644501,126.877777 
	C198.349823,125.441193 198.613098,123.787575 199.365631,122.203415 
	C199.833206,121.713356 200.013504,121.253006 200.132874,120.652412 
	C200.071945,120.512169 200.078751,120.206444 200.438843,120.139450 
	C202.180267,119.651184 203.561615,119.229904 205.225800,118.866402 
	C205.698563,118.955208 205.888504,118.986244 206.222687,119.431602 
	C231.996582,119.896706 257.626282,119.929634 283.255676,120.034508 
	C285.164154,120.042320 287.070496,120.566025 289.268463,121.053207 
	C292.942535,127.511810 296.326019,133.767090 299.799286,140.327621 
	C300.243042,141.107559 300.596985,141.582230 300.955994,142.023605 
	C300.961029,141.990311 300.925842,142.048813 300.972290,142.473328 
	C302.503479,143.264633 303.985229,143.934280 305.473480,143.949066 
	C315.088348,144.044479 324.704620,143.996841 334.320435,143.996353 
	C339.389496,143.996109 344.458557,143.996307 350.605927,143.996307 
	C349.058807,141.302963 348.046692,139.541000 346.983643,137.582367 
	C346.932739,137.385696 346.807892,136.999054 346.757812,136.716125 
	C346.147644,135.915619 345.587524,135.398041 344.998596,134.523224 
	C343.754730,131.641968 342.654236,129.054993 341.306793,126.603790 
	C329.155365,104.498711 316.989563,82.401390 304.769684,60.334080 
	C294.556641,41.890865 284.265442,23.490953 274.018005,4.771033 
	C273.725281,4.225463 273.423431,3.980727 272.963440,3.554497 
	C272.573212,3.130919 272.290741,2.989596 272.160583,2.559017 
	C312.246826,2.117456 352.130310,2.061529 392.013824,2.057045 
	C392.598724,2.056979 393.183685,2.697639 393.391785,3.012893 
	C389.859924,3.937148 386.670013,4.786398 383.556488,5.857691 
	C374.707489,8.902452 368.365143,14.742381 366.059174,23.859015 
	C364.418060,30.347025 363.301880,37.130543 363.196106,43.801914 
	C363.071198,51.677826 364.113800,59.593956 364.972656,67.457443 
	C365.772552,74.781380 370.447723,80.133278 376.751434,82.470688 
	C384.285461,85.264313 392.485687,87.081772 400.505768,87.581253 
	C419.948334,88.792122 439.462708,88.796906 458.930115,89.683868 
	C468.860718,90.136322 478.760406,91.366028 488.657257,92.404701 
	C492.003174,92.755859 495.659546,94.224251 495.528381,97.890411 
	C495.362244,102.534996 498.059845,108.705017 490.533142,111.061417 
	C488.548645,111.322090 487.002228,111.887161 485.438110,111.941093 
	C473.591980,112.349663 461.744080,112.751930 449.893311,112.966591 
	C441.111633,113.125656 432.324402,112.957031 423.540741,113.043396 
	C422.052307,113.058029 420.569336,113.624146 418.811096,113.987236 
	C418.358307,114.081947 418.178284,114.124901 417.753296,114.126801 
	C417.508331,114.085747 417.014465,114.139320 416.703094,113.957672 
	C411.352142,112.385620 409.010284,108.424393 406.898895,103.649704 
	C392.436066,103.176208 378.187408,103.085182 363.938690,103.059387 
	C363.647369,103.058861 363.354675,103.816566 363.049805,104.663399 
	C363.366699,109.025185 363.710175,112.943001 364.023590,116.863228 
	C365.191254,131.468765 372.478149,139.885086 387.009460,143.431564 
	C390.887573,144.170044 394.588318,144.571426 398.249115,145.203812 
	C398.916290,145.319031 399.420532,146.377151 400.000000,147.000000 
z"/>
<path fill="#024072" opacity="1.000000" stroke="none" 
	d="
M490.963013,111.129074 
	C498.059845,108.705017 495.362244,102.534996 495.528381,97.890411 
	C495.659546,94.224251 492.003174,92.755859 488.657257,92.404701 
	C478.760406,91.366028 468.860718,90.136322 458.930115,89.683868 
	C439.462708,88.796906 419.948334,88.792122 400.505768,87.581253 
	C392.485687,87.081772 384.285461,85.264313 376.751434,82.470688 
	C370.447723,80.133278 365.772552,74.781380 364.972656,67.457443 
	C364.113800,59.593956 363.071198,51.677826 363.196106,43.801914 
	C363.301880,37.130543 364.418060,30.347025 366.059174,23.859015 
	C368.365143,14.742381 374.707489,8.902452 383.556488,5.857691 
	C386.670013,4.786398 389.859924,3.937148 393.829590,3.101290 
	C398.429504,2.477376 402.214752,1.738688 406.000000,1.000000 
	C408.041656,1.000000 410.083344,1.000000 412.817230,1.341551 
	C413.993683,1.790030 414.477844,1.990022 414.962158,1.990528 
	C438.275696,2.014871 461.589294,2.035185 484.902710,1.987296 
	C485.935822,1.985173 486.967590,1.343674 488.000000,0.999997 
	C489.388885,1.000000 490.777802,1.000000 492.758423,1.374790 
	C497.532471,2.217312 501.714722,2.685044 505.897003,3.152773 
	C511.337952,5.278194 517.072754,6.866599 522.155029,9.647535 
	C531.084900,14.533866 534.592102,22.891687 535.015930,32.777393 
	C535.121460,35.238853 535.532288,37.687222 535.346924,40.559296 
	C522.161621,40.982586 509.431946,41.029747 496.703094,40.949421 
	C494.772308,40.937237 492.845245,40.332771 490.916473,40.002262 
	C488.057587,34.629028 482.717926,34.645786 477.110657,33.526878 
	C457.494629,33.086445 438.484711,33.034599 419.474823,33.043316 
	C418.614441,33.043709 417.754364,33.591496 416.894135,33.884315 
	C413.952515,36.212868 408.982361,38.146870 408.438751,40.941841 
	C406.597900,50.406265 407.965576,54.146809 418.675812,54.918690 
	C419.834564,55.002197 420.997650,55.025333 422.788055,55.453598 
	C425.256165,55.922764 427.094971,56.014812 429.245697,56.279812 
	C431.398682,56.378727 433.239685,56.304688 435.543396,56.203629 
	C443.049408,56.141338 450.092712,56.106064 457.136017,56.070789 
	C457.136017,56.070789 457.483826,55.975830 457.996155,56.292503 
	C466.708221,56.739651 474.907898,56.870125 483.107605,57.000599 
	C494.825592,56.949886 506.438354,57.627506 517.831421,60.798538 
	C531.903015,64.715073 540.584229,74.842964 540.851746,89.263329 
	C541.041870,99.508804 541.160156,109.899651 539.705688,119.994392 
	C537.968018,132.054565 529.678528,139.675034 515.911316,142.682739 
	C509.986328,143.977173 503.835358,144.237061 497.072876,144.690735 
	C495.549957,144.277466 494.741241,144.021240 493.932373,144.020599 
	C468.226410,144.000290 442.520416,143.992981 416.814545,144.040894 
	C415.552216,144.043243 414.290863,144.560867 412.781067,144.897064 
	C412.364899,144.979691 412.196747,145.003799 411.774780,145.018890 
	C411.351959,145.019867 411.182892,145.029877 410.705078,144.765472 
	C404.560181,143.723129 398.737427,142.809921 392.880371,142.268234 
	C390.904510,142.085495 388.841492,142.844940 386.818329,143.173782 
	C372.478149,139.885086 365.191254,131.468765 364.023590,116.863228 
	C363.710175,112.943001 363.366699,109.025185 363.503479,104.593918 
	C378.350983,104.067513 392.732056,104.053452 407.113098,104.039398 
	C409.010284,108.424393 411.352142,112.385620 416.801880,114.078018 
	C417.212036,114.380020 417.642395,114.451103 417.642395,114.451103 
	C417.642395,114.451103 417.998291,114.167847 417.998291,114.167847 
	C418.178284,114.124901 418.358307,114.081947 419.050507,114.009506 
	C419.562653,113.980026 420.015198,114.140938 420.349304,114.382072 
	C420.999756,114.720314 421.315186,114.899200 421.632599,114.902840 
	C441.706268,115.132462 461.779968,115.355766 481.854279,115.502563 
	C482.223022,115.505264 482.598572,114.581619 483.339417,113.973824 
	C486.126251,112.947998 488.544647,112.038536 490.963013,111.129074 
z"/>
<path fill="#757B60" opacity="1.000000" stroke="none" 
	d="
M1139.168945,114.797501 
	C1132.678955,114.856796 1126.182739,114.779022 1119.703857,115.077667 
	C1118.199829,115.146988 1116.137573,116.114899 1115.384277,117.324539 
	C1110.806885,124.674881 1106.385620,132.133804 1102.231567,139.731049 
	C1100.554565,142.798172 1098.752686,144.343674 1095.036743,144.122116 
	C1089.239258,143.776459 1083.406006,144.030609 1076.558350,144.030609 
	C1078.563110,140.292557 1080.122192,137.112793 1081.922363,134.076004 
	C1090.200439,120.111626 1098.516724,106.169540 1106.875732,92.253479 
	C1115.009033,78.713303 1123.271729,65.250725 1131.361816,51.684959 
	C1136.927979,42.351295 1142.299194,32.901230 1147.752319,23.500275 
	C1151.153564,17.636707 1154.343140,11.633870 1158.074463,5.988876 
	C1159.094238,4.446051 1161.676514,3.287205 1163.632324,3.137806 
	C1168.764526,2.745773 1173.988770,3.415185 1179.096802,2.889988 
	C1183.905396,2.395594 1186.111572,4.657128 1188.329590,8.410045 
	C1200.396484,28.827129 1212.815796,49.036057 1224.873169,69.458710 
	C1238.753784,92.969612 1252.376221,116.632988 1266.153931,140.204865 
	C1266.626221,141.012604 1267.566284,141.546829 1268.644165,142.104263 
	C1269.000000,142.444443 1269.000000,142.888901 1269.000000,143.666672 
	C1262.383545,144.010147 1255.753052,144.259399 1249.159424,143.876923 
	C1247.310303,143.769653 1244.901123,142.224411 1243.890625,140.619751 
	C1238.786621,132.514832 1234.059692,124.172432 1228.992798,115.153999 
	C1227.474121,114.263107 1226.163330,114.017693 1224.852295,114.016975 
	C1202.056152,114.004494 1179.259888,113.972420 1156.464111,114.067604 
	C1150.698120,114.091682 1144.933960,114.542679 1139.168945,114.797501 
M1126.409058,97.078835 
	C1127.929443,97.659592 1129.447876,98.741325 1130.970337,98.746819 
	C1158.905884,98.847687 1186.841919,98.824333 1214.777832,98.806480 
	C1216.339722,98.805489 1217.901611,98.624649 1220.474121,98.464661 
	C1219.055176,97.158279 1218.429199,96.582031 1217.175293,95.718079 
	C1214.992065,91.896935 1212.839478,88.057915 1210.619751,84.258102 
	C1204.449219,73.694908 1198.285645,63.127411 1192.053833,52.600433 
	C1185.668213,41.813808 1179.205078,31.073074 1172.623779,20.057663 
	C1164.255981,34.441177 1156.162964,48.540085 1147.882202,62.527851 
	C1141.083496,74.012283 1134.061523,85.364647 1126.409058,97.078835 
z"/>
<path fill="#F6FBFE" opacity="1.000000" stroke="none" 
	d="
M506.060547,2.724065 
	C501.714722,2.685044 497.532471,2.217312 493.175110,1.374790 
	C687.020935,1.000000 881.041809,1.000000 1075.531372,1.000004 
	C1074.192627,1.336239 1072.385498,1.966029 1070.578003,1.966766 
	C956.333618,2.013338 842.089294,2.008027 727.844910,2.014644 
	C726.016418,2.014750 724.187866,2.104105 721.869629,2.541523 
	C721.379822,2.931236 720.935181,3.097548 720.474731,3.031048 
	C668.724731,2.972066 617.435181,2.979584 566.145569,2.987098 
	C565.636597,2.663491 565.126892,2.056072 564.618713,2.057238 
	C545.153748,2.101902 525.688904,2.202333 506.060547,2.724065 
z"/>
<path fill="#F1F9FE" opacity="1.000000" stroke="none" 
	d="
M405.531342,1.000000 
	C402.214752,1.738688 398.429504,2.477376 394.206421,3.127667 
	C393.183685,2.697639 392.598724,2.056979 392.013824,2.057045 
	C352.130310,2.061529 312.246826,2.117456 271.912628,2.589202 
	C271.461945,3.009406 270.984070,3.153403 270.523071,3.069125 
	C252.712234,3.036610 235.362442,3.088372 217.712189,3.064738 
	C216.999710,2.988790 216.587677,2.988239 216.175659,2.987689 
	C215.496902,2.664335 214.817932,2.058188 214.139404,2.058661 
	C192.861725,2.073483 171.584061,2.147377 149.835678,2.601470 
	C149.364944,2.990686 148.897141,3.097499 148.438202,3.039041 
	C109.988167,2.975276 71.997070,2.955538 34.005985,2.974162 
	C23.681181,2.979224 13.356433,3.099995 2.671906,3.020733 
	C1.874768,3.249204 1.437384,3.624602 1.000000,4.000000 
	C1.000000,3.001073 1.000000,2.002146 1.000000,1.001610 
	C135.687561,1.000000 270.375122,1.000000 405.531342,1.000000 
z"/>
<path fill="#325874" opacity="1.000000" stroke="none" 
	d="
M1.000000,4.468657 
	C1.437384,3.624602 1.874768,3.249204 2.676180,3.233306 
	C3.040209,3.592806 3.073736,4.016710 3.057440,4.348466 
	C3.043618,5.123025 3.046093,5.565830 3.038991,6.255320 
	C3.029416,6.502007 3.052050,6.995232 3.041429,7.371828 
	C3.042279,8.501698 3.053750,9.254972 3.053671,10.253293 
	C3.042121,10.498339 3.065717,10.988406 3.050231,11.457539 
	C3.048876,55.581654 3.063007,99.236633 3.052798,143.128922 
	C3.028458,143.366226 2.998729,143.842407 2.998729,143.842407 
	C2.541991,143.795593 2.085253,143.748764 1.314258,143.850967 
	C1.000000,97.645775 1.000000,51.291542 1.000000,4.468657 
z"/>
<path fill="#86A2B9" opacity="1.000000" stroke="none" 
	d="
M412.028564,145.027924 
	C412.196747,145.003799 412.364899,144.979691 413.244080,144.959915 
	C434.656586,144.976990 455.358368,144.944397 476.058960,145.088715 
	C477.710358,145.100235 479.353180,146.334152 481.000000,147.000000 
	C458.312439,147.000000 435.624878,147.000000 412.783020,146.748276 
	C412.428680,146.007004 412.228607,145.517471 412.028564,145.027924 
z"/>
<path fill="#11426A" opacity="1.000000" stroke="none" 
	d="
M481.399994,147.000000 
	C479.353180,146.334152 477.710358,145.100235 476.058960,145.088715 
	C455.358368,144.944397 434.656586,144.976990 413.492065,144.901398 
	C414.290863,144.560867 415.552216,144.043243 416.814545,144.040894 
	C442.520416,143.992981 468.226410,144.000290 493.932373,144.020599 
	C494.741241,144.021240 495.549957,144.277466 496.683228,144.673248 
	C496.625305,145.414932 496.242950,145.897888 495.930298,146.690430 
	C494.933319,147.000000 493.866669,147.000000 492.488190,146.719543 
	C491.872864,146.200790 491.569336,145.962479 491.265808,145.724167 
	C491.177185,146.149445 491.088593,146.574722 491.000000,147.000000 
	C489.611115,147.000000 488.222198,147.000000 486.504852,146.719788 
	C485.873230,146.201416 485.570068,145.963272 485.266907,145.725128 
	C485.177948,146.150070 485.088959,146.575027 485.000000,147.000000 
	C483.933319,147.000000 482.866669,147.000000 481.399994,147.000000 
z"/>
<path fill="#4E83AD" opacity="1.000000" stroke="none" 
	d="
M487.531342,0.999997 
	C486.967590,1.343674 485.935822,1.985173 484.902710,1.987296 
	C461.589294,2.035185 438.275696,2.014871 414.962158,1.990528 
	C414.477844,1.990022 413.993683,1.790030 413.254730,1.341551 
	C437.687561,1.000000 462.375122,1.000000 487.531342,0.999997 
z"/>
<path fill="#11426A" opacity="1.000000" stroke="none" 
	d="
M387.009460,143.431564 
	C388.841492,142.844940 390.904510,142.085495 392.880371,142.268234 
	C398.737427,142.809921 404.560181,143.723129 410.648499,145.095703 
	C410.933746,146.133575 410.966858,146.566788 411.000000,147.000000 
	C409.933319,147.000000 408.866669,147.000000 407.488190,146.719391 
	C406.872528,146.200333 406.568695,145.961914 406.264832,145.723495 
	C406.176544,146.149002 406.088257,146.574493 406.000000,147.000000 
	C404.285645,147.000000 402.571289,147.000000 400.428467,147.000000 
	C399.420532,146.377151 398.916290,145.319031 398.249115,145.203812 
	C394.588318,144.571426 390.887573,144.170044 387.009460,143.431564 
z"/>
<path fill="#000000" opacity="1.000000" stroke="none" 
	d="
M491.250000,147.000000 
	C491.088593,146.574722 491.177185,146.149445 491.265808,145.724167 
	C491.569336,145.962479 491.872864,146.200790 492.088196,146.719543 
	C492.000000,147.000000 491.500000,147.000000 491.250000,147.000000 
z"/>
<path fill="#000000" opacity="1.000000" stroke="none" 
	d="
M485.250000,147.000000 
	C485.088959,146.575027 485.177948,146.150070 485.266907,145.725128 
	C485.570068,145.963272 485.873230,146.201416 486.088196,146.719788 
	C486.000000,147.000000 485.500000,147.000000 485.250000,147.000000 
z"/>
<path fill="#000000" opacity="1.000000" stroke="none" 
	d="
M411.250000,147.000000 
	C410.966858,146.566788 410.933746,146.133575 410.957245,145.370117 
	C411.182892,145.029877 411.351959,145.019867 411.774780,145.018890 
	C412.228607,145.517471 412.428680,146.007004 412.314362,146.748276 
	C412.000000,147.000000 411.500000,147.000000 411.250000,147.000000 
z"/>
<path fill="#000000" opacity="1.000000" stroke="none" 
	d="
M406.250000,147.000000 
	C406.088257,146.574493 406.176544,146.149002 406.264832,145.723495 
	C406.568695,145.961914 406.872528,146.200333 407.088196,146.719391 
	C407.000000,147.000000 406.500000,147.000000 406.250000,147.000000 
z"/>
<path fill="#003F72" opacity="1.000000" stroke="none" 
	d="
M667.007507,37.862274 
	C666.840088,37.901417 666.672607,37.940559 665.978210,38.063522 
	C665.245300,38.445351 665.039429,38.743359 664.596863,39.375263 
	C664.240234,41.523582 664.017212,43.337921 664.015686,45.152439 
	C663.988831,77.767418 663.988708,110.382423 663.515381,143.006134 
	C651.426941,143.014008 639.804443,142.907150 628.185913,143.071716 
	C624.293152,143.126846 622.871521,141.703766 622.935669,137.827774 
	C623.000122,133.931641 622.426636,130.024948 622.064087,125.778854 
	C622.076660,124.974808 622.157837,124.514771 622.463562,123.702988 
	C622.796753,122.534843 622.999756,121.718506 623.000244,120.902054 
	C623.015930,94.865456 623.022949,68.828827 622.977539,42.792290 
	C622.975342,41.524372 622.486694,40.257309 622.152466,38.762833 
	C622.080383,38.535812 621.979370,38.070290 621.723511,37.788002 
	C618.418823,37.009010 615.365051,36.063591 612.321899,36.096645 
	C601.621643,36.212879 590.923767,36.630081 580.228027,37.017159 
	C577.804382,37.104870 575.392944,37.531086 572.756104,37.873177 
	C572.536316,37.944866 572.074646,37.970543 572.074646,37.970543 
	C571.892639,37.963558 571.710571,37.956577 571.014038,37.650490 
	C569.337280,35.176300 567.231018,33.021133 567.184631,30.822504 
	C567.028198,23.412043 568.116272,15.956669 567.692017,8.578073 
	C567.466736,4.660422 568.518250,3.970719 571.827209,3.973287 
	C619.764587,4.010493 667.702026,4.031339 715.639221,3.935275 
	C719.322876,3.927893 720.123474,5.441275 720.057312,8.713003 
	C719.899170,16.532921 719.850342,24.362663 720.074219,32.179363 
	C720.180054,35.871628 718.963074,37.104790 715.233765,37.059738 
	C700.921265,36.886845 686.605225,36.962585 672.290894,37.032436 
	C670.528503,37.041035 668.768555,37.572895 667.007507,37.862274 
z"/>
<path fill="#73795D" opacity="1.000000" stroke="none" 
	d="
M1015.044861,143.889938 
	C1009.324036,143.929245 1003.603271,143.968536 997.443604,143.485718 
	C997.003845,103.667259 997.018921,64.370865 996.956238,25.074598 
	C996.953003,23.040409 996.285522,21.007280 995.927307,18.973658 
	C995.927307,18.973658 996.023315,18.976797 995.772583,18.679134 
	C994.540283,18.251858 993.558655,18.009247 992.577087,18.009214 
	C970.088623,18.008446 947.600159,18.034126 925.111694,18.054874 
	C925.111694,13.259145 925.111694,8.463415 925.111694,2.999211 
	C927.323425,2.999211 929.254944,2.999220 931.186462,2.999210 
	C980.618408,2.998942 1030.050293,2.998430 1079.482300,2.998662 
	C1086.999023,2.998697 1087.000732,3.000293 1086.998413,10.657074 
	C1086.997803,12.487802 1086.981323,14.318525 1086.543335,16.764465 
	C1084.164551,17.586929 1082.214966,17.969973 1080.264526,17.974260 
	C1060.523804,18.017666 1040.782837,17.973059 1021.042419,18.044582 
	C1019.351074,18.050709 1017.662170,18.712914 1015.972107,19.070345 
	C1015.972107,19.070343 1015.977844,18.977503 1015.697998,19.248783 
	C1015.278564,20.665834 1015.017273,21.811586 1015.017151,22.957378 
	C1015.011169,63.268230 1015.029724,103.579086 1015.044861,143.889938 
z"/>
<path fill="#73795D" opacity="1.000000" stroke="none" 
	d="
M939.002075,143.903748 
	C936.281860,143.935715 933.561584,143.967682 930.064209,143.686707 
	C928.470764,143.250229 927.654480,143.019043 926.838074,143.018616 
	C891.173218,143.000031 855.508423,142.993118 819.843628,143.037201 
	C818.579651,143.038773 817.316345,143.570282 816.052734,143.854828 
	C814.960754,143.904160 813.868835,143.953491 812.391296,143.486099 
	C811.986572,96.360573 811.967407,49.751766 811.948303,3.142962 
	C817.678528,3.104236 823.408752,3.065510 829.578308,3.537688 
	C830.011597,43.851971 829.993652,83.655365 830.044800,123.458672 
	C830.046753,124.983696 830.715332,126.507866 831.073242,128.032440 
	C831.073303,128.032425 830.978516,128.023636 831.258057,128.295105 
	C833.515503,128.711578 835.493103,128.978699 837.471313,128.983444 
	C871.296387,129.064377 905.121521,129.112854 938.961426,129.618805 
	C938.984863,134.680679 938.993469,139.292221 939.002075,143.903748 
z"/>
<path fill="#113F63" opacity="1.000000" stroke="none" 
	d="
M667.473511,37.910740 
	C668.768555,37.572895 670.528503,37.041035 672.290894,37.032436 
	C686.605225,36.962585 700.921265,36.886845 715.233765,37.059738 
	C718.963074,37.104790 720.180054,35.871628 720.074219,32.179363 
	C719.850342,24.362663 719.899170,16.532921 720.057312,8.713003 
	C720.123474,5.441275 719.322876,3.927893 715.639221,3.935275 
	C667.702026,4.031339 619.764587,4.010493 571.827209,3.973287 
	C568.518250,3.970719 567.466736,4.660422 567.692017,8.578073 
	C568.116272,15.956669 567.028198,23.412043 567.184631,30.822504 
	C567.231018,33.021133 569.337280,35.176300 570.746460,37.594524 
	C569.546570,37.837662 568.099731,37.837662 566.048889,37.837662 
	C566.048889,26.292618 566.048889,15.102791 566.097229,3.450033 
	C617.435181,2.979584 668.724731,2.972066 720.501099,3.492706 
	C720.997009,15.299485 721.006165,26.578106 721.015259,37.856728 
	C703.323364,37.890888 685.631409,37.925045 667.473511,37.910740 
z"/>
<path fill="#9FA391" opacity="1.000000" stroke="none" 
	d="
M811.557556,3.317512 
	C811.967407,49.751766 811.986572,96.360573 811.984131,143.430283 
	C811.641541,142.738220 811.041138,141.585541 811.039978,140.432251 
	C810.994812,95.281189 811.003723,50.130058 811.013123,4.978942 
	C811.013245,4.483301 811.113342,3.987686 811.557556,3.317512 
z"/>
<path fill="#EFFFFF" opacity="1.000000" stroke="none" 
	d="
M621.979370,38.070290 
	C621.979370,38.070290 622.080383,38.535812 622.059021,39.224400 
	C622.104736,67.960236 622.171814,96.007477 622.238892,124.054733 
	C622.157837,124.514771 622.076660,124.974808 621.933472,125.974136 
	C621.871460,126.513443 621.706238,126.956223 621.706238,126.956223 
	C621.467834,125.035294 621.024963,123.114700 621.021851,121.193382 
	C620.979614,95.219444 620.998657,69.245407 621.002441,43.271389 
	C621.002625,41.982353 621.002380,40.693314 621.002380,38.818855 
	C604.525940,38.818855 588.428711,38.818855 572.203125,38.394699 
	C572.074646,37.970543 572.536316,37.944866 573.222900,37.948547 
	C589.932800,37.991581 605.956055,38.030937 621.979370,38.070290 
z"/>
<path fill="#C6C8BB" opacity="1.000000" stroke="none" 
	d="
M831.040161,127.561790 
	C830.715332,126.507866 830.046753,124.983696 830.044800,123.458672 
	C829.993652,83.655365 830.011597,43.851971 830.048767,3.589443 
	C830.386780,4.788310 830.959412,6.445975 830.961609,8.104392 
	C831.013855,47.766594 831.004944,87.428879 831.040161,127.561790 
z"/>
<path fill="#ADAFA1" opacity="1.000000" stroke="none" 
	d="
M1015.444702,143.724838 
	C1015.029724,103.579086 1015.011169,63.268230 1015.017151,22.957378 
	C1015.017273,21.811586 1015.278564,20.665834 1015.744507,19.249107 
	C1016.047607,58.682022 1016.026367,98.385895 1015.994446,138.089767 
	C1015.992981,139.913116 1015.896667,141.736420 1015.444702,143.724838 
z"/>
<path fill="#BBBDB0" opacity="1.000000" stroke="none" 
	d="
M995.961182,19.444054 
	C996.285522,21.007280 996.953003,23.040409 996.956238,25.074598 
	C997.018921,64.370865 997.003845,103.667259 996.975769,143.423645 
	C996.631592,142.237701 996.043152,140.592087 996.040955,138.945679 
	C995.987732,99.268646 995.997070,59.591541 995.961182,19.444054 
z"/>
<path fill="#7D8171" opacity="1.000000" stroke="none" 
	d="
M816.514771,143.910858 
	C817.316345,143.570282 818.579651,143.038773 819.843628,143.037201 
	C855.508423,142.993118 891.173218,143.000031 926.838074,143.018616 
	C927.654480,143.019043 928.470764,143.250229 929.614990,143.617004 
	C892.287476,143.895767 854.632202,143.931320 816.514771,143.910858 
z"/>
<path fill="#A5A79B" opacity="1.000000" stroke="none" 
	d="
M938.946655,129.168488 
	C905.121521,129.112854 871.296387,129.064377 837.471313,128.983444 
	C835.493103,128.978699 833.515503,128.711578 831.259888,128.247559 
	C865.352173,127.952217 899.722107,127.973457 934.092102,128.006271 
	C935.914429,128.008011 937.736633,128.107651 939.485962,128.612915 
	C939.412964,129.064102 938.946655,129.168488 938.946655,129.168488 
z"/>
<path fill="#9CB6CB" opacity="1.000000" stroke="none" 
	d="
M664.833496,39.041367 
	C665.039429,38.743359 665.245300,38.445351 665.722717,38.098969 
	C665.948669,73.209618 665.903076,108.368637 665.428345,143.462311 
	C664.999146,143.396973 664.863708,142.956985 664.919922,142.494537 
	C664.928528,107.701859 664.881042,73.371613 664.833496,39.041367 
z"/>
<path fill="#EDEFE2" opacity="1.000000" stroke="none" 
	d="
M1139.625977,114.840935 
	C1144.933960,114.542679 1150.698120,114.091682 1156.464111,114.067604 
	C1179.259888,113.972420 1202.056152,114.004494 1224.852295,114.016975 
	C1226.163330,114.017693 1227.474121,114.263107 1228.893066,114.831383 
	C1206.686646,115.180481 1184.372192,115.095604 1162.057739,115.003571 
	C1154.732788,114.973366 1147.407959,114.924637 1139.625977,114.840935 
z"/>
<path fill="#BDC0B1" opacity="1.000000" stroke="none" 
	d="
M1016.442627,19.040215 
	C1017.662170,18.712914 1019.351074,18.050709 1021.042419,18.044582 
	C1040.782837,17.973059 1060.523804,18.017666 1080.264526,17.974260 
	C1082.214966,17.969973 1084.164551,17.586929 1086.496948,17.231445 
	C1085.578247,17.722012 1084.280151,18.910725 1082.975708,18.917713 
	C1060.955322,19.035671 1038.934204,19.006590 1016.442627,19.040215 
z"/>
<path fill="#BBBDB0" opacity="1.000000" stroke="none" 
	d="
M925.268433,18.459408 
	C947.600159,18.034126 970.088623,18.008446 992.577087,18.009214 
	C993.558655,18.009247 994.540283,18.251858 995.773682,18.727165 
	C972.492065,19.003220 948.958618,18.933580 925.268433,18.459408 
z"/>
<path fill="#2E526F" opacity="1.000000" stroke="none" 
	d="
M664.863708,142.956985 
	C664.863708,142.956985 664.999146,143.396973 665.030640,143.624603 
	C650.963257,143.852219 636.864441,143.852219 621.920715,143.852219 
	C621.920715,138.362671 621.920715,133.118607 621.813477,127.415375 
	C621.706238,126.956223 621.871460,126.513443 622.002075,126.318161 
	C622.426636,130.024948 623.000122,133.931641 622.935669,137.827774 
	C622.871521,141.703766 624.293152,143.126846 628.185913,143.071716 
	C639.804443,142.907150 651.426941,143.014008 663.736023,143.003540 
	C664.424194,142.992249 664.863708,142.956985 664.863708,142.956985 
z"/>
<path fill="#F2FFFF" opacity="1.000000" stroke="none" 
	d="
M417.372864,33.936028 
	C417.754364,33.591496 418.614441,33.043709 419.474823,33.043316 
	C438.484711,33.034599 457.494629,33.086445 476.724365,33.494453 
	C457.246643,33.904015 437.549103,33.945873 417.372864,33.936028 
z"/>
<path fill="#325774" opacity="1.000000" stroke="none" 
	d="
M490.997986,40.418694 
	C492.845245,40.332771 494.772308,40.937237 496.703094,40.949421 
	C509.431946,41.029747 522.161621,40.982586 535.342773,40.970612 
	C534.785889,41.310291 533.778809,41.952320 532.768433,41.957520 
	C519.850098,42.023949 506.931061,42.024353 494.012787,41.947453 
	C493.032837,41.941620 492.057159,41.222622 490.997986,40.418694 
z"/>
<path fill="#718FA4" opacity="1.000000" stroke="none" 
	d="
M721.407288,37.681465 
	C721.006165,26.578106 720.997009,15.299485 720.961548,3.559206 
	C720.935181,3.097548 721.379822,2.931236 721.615356,2.900681 
	C721.833618,14.415485 721.816406,25.960846 721.407288,37.681465 
z"/>
<path fill="#F2FFFF" opacity="1.000000" stroke="none" 
	d="
M456.947052,55.660145 
	C450.092712,56.106064 443.049408,56.141338 435.116882,56.083023 
	C432.463043,56.028576 430.698395,56.067719 428.933746,56.106857 
	C427.094971,56.014812 425.256165,55.922764 423.234680,55.484962 
	C434.287323,55.175972 445.522705,55.212734 456.947052,55.660145 
z"/>
<path fill="#577792" opacity="1.000000" stroke="none" 
	d="
M482.899780,56.606922 
	C474.907898,56.870125 466.708221,56.739651 458.170990,56.336502 
	C466.119629,56.113636 474.405823,56.163441 482.899780,56.606922 
z"/>
<path fill="#7D8171" opacity="1.000000" stroke="none" 
	d="
M938.961426,129.618805 
	C938.946655,129.168488 939.412964,129.064102 939.646606,129.013824 
	C939.847656,133.824875 939.815186,138.686188 939.392395,143.725647 
	C938.993469,139.292221 938.984863,134.680679 938.961426,129.618805 
z"/>
<path fill="#024072" opacity="1.000000" stroke="none" 
	d="
M216.085419,3.178016 
	C216.587677,2.988239 216.999710,2.988790 218.046951,3.305582 
	C235.520950,3.724909 252.359680,3.836047 269.198608,3.897859 
	C269.792847,3.900040 270.388885,3.412628 270.984070,3.153402 
	C270.984070,3.153403 271.461945,3.009406 271.709900,2.979220 
	C272.290741,2.989596 272.573212,3.130919 273.037964,3.820100 
	C273.516724,4.535419 273.762787,4.803641 274.008850,5.071864 
	C284.265442,23.490953 294.556641,41.890865 304.769684,60.334080 
	C316.989563,82.401390 329.155365,104.498711 341.306793,126.603790 
	C342.654236,129.054993 343.754730,131.641968 345.036316,134.833435 
	C345.671234,136.000259 346.239563,136.499664 346.807892,136.999054 
	C346.807892,136.999054 346.932739,137.385696 346.952515,138.010483 
	C347.237305,141.859833 345.669769,143.077209 342.539520,143.027054 
	C336.248291,142.926239 329.951355,143.118988 323.662231,142.966278 
	C316.080475,142.782196 308.504395,142.365067 300.925842,142.048813 
	C300.925842,142.048813 300.961029,141.990311 300.938232,141.700089 
	C300.513458,140.947372 300.111481,140.484863 299.709473,140.022369 
	C296.326019,133.767090 292.942535,127.511810 289.264648,120.749756 
	C288.642517,119.784294 288.314819,119.325600 287.653442,118.624863 
	C286.508270,118.256378 285.696869,118.020111 284.885254,118.019447 
	C260.183563,117.999168 235.481842,117.989838 210.780243,118.036682 
	C209.516876,118.039070 208.254486,118.554825 206.768555,118.903671 
	C206.545486,118.975784 206.078430,119.017281 206.078430,119.017281 
	C205.888504,118.986244 205.698563,118.955208 204.948929,118.655426 
	C202.952393,118.993263 201.515579,119.599854 200.078751,120.206444 
	C200.078751,120.206444 200.071945,120.512169 199.887451,120.842880 
	C199.494766,121.526772 199.286560,121.879944 199.078354,122.233124 
	C198.613098,123.787575 198.349823,125.441193 197.644501,126.877777 
	C195.577255,131.088333 193.334106,135.212540 190.639893,139.747742 
	C187.756134,141.082642 185.410583,142.811462 183.025436,142.867935 
	C171.110077,143.150116 159.183273,142.905670 147.262909,143.048904 
	C144.028168,143.087784 142.619843,141.977356 142.952454,138.764481 
	C145.430573,133.917480 147.890381,129.061005 150.390457,124.225380 
	C156.355972,112.686943 162.231277,101.099884 168.361023,89.649162 
	C171.678513,83.451874 175.636108,77.597771 178.966599,71.406830 
	C186.213104,57.936478 193.139938,44.294041 200.398376,30.830265 
	C204.974060,22.342737 209.913208,14.051155 215.062149,5.195676 
	C215.589386,4.405880 215.743790,4.092087 215.898193,3.778294 
	C215.898193,3.778294 215.995193,3.368343 216.085419,3.178016 
M218.695679,89.616364 
	C235.508743,89.723770 252.321762,89.839233 269.134979,89.905670 
	C269.735443,89.908051 270.337769,89.425934 271.483398,88.894234 
	C271.338684,88.174461 271.193970,87.454697 270.626373,86.202217 
	C262.149658,70.175751 253.672928,54.149288 244.806534,37.386112 
	C243.643555,39.264393 243.083374,40.044590 242.648865,40.889412 
	C235.549561,54.692825 228.493683,68.518707 221.343246,82.295509 
	C220.478210,83.962173 219.121872,85.373833 217.638550,87.319084 
	C217.771667,87.921890 217.904770,88.524704 218.695679,89.616364 
z"/>
<path fill="#003F72" opacity="1.000000" stroke="none" 
	d="
M3.077137,142.891617 
	C3.063007,99.236633 3.048876,55.581654 3.179446,11.359486 
	C3.499391,10.465306 3.413083,10.203956 3.065221,10.008247 
	C3.053750,9.254972 3.042279,8.501698 3.173349,7.272979 
	C3.495327,6.465518 3.406219,6.202550 3.048567,6.008634 
	C3.046093,5.565830 3.043618,5.123025 3.518150,4.343971 
	C50.112274,4.005371 96.229538,4.052894 142.346268,3.917248 
	C146.579483,3.904796 148.286102,4.842782 148.101639,9.427485 
	C147.747192,18.237377 147.984039,27.071060 147.509399,35.925388 
	C115.570755,35.970089 84.098282,35.968006 52.625965,36.038300 
	C50.708458,36.042580 48.792233,36.620724 46.875408,36.931858 
	C46.875408,36.931858 46.515465,37.015015 45.932465,37.177063 
	C45.232552,43.405952 45.006134,49.473621 45.051773,55.539242 
	C45.070438,58.020157 45.677620,60.496647 46.017075,62.975147 
	C46.186893,62.992077 46.356709,63.009003 47.106606,63.322273 
	C49.497757,63.746464 51.308731,63.983940 53.119926,63.985645 
	C79.055199,64.009987 104.990875,64.070618 130.925400,63.928940 
	C134.792557,63.907814 136.222656,64.961021 136.087387,68.989304 
	C135.797379,77.625130 135.958725,86.276108 135.473297,94.946381 
	C107.561562,94.978943 80.111732,94.967430 52.662083,95.033119 
	C50.745274,95.037704 48.829830,95.614555 46.913754,95.925285 
	C46.913754,95.925285 46.517250,96.009003 45.922394,96.191368 
	C45.191689,112.193047 45.055840,128.012360 44.919991,143.831680 
	C44.489536,143.865021 44.059082,143.898361 42.975891,143.653198 
	C29.241148,143.213669 16.159143,143.052643 3.077137,142.891617 
z"/>
<path fill="#204C71" opacity="1.000000" stroke="none" 
	d="
M135.935257,94.920883 
	C135.958725,86.276108 135.797379,77.625130 136.087387,68.989304 
	C136.222656,64.961021 134.792557,63.907814 130.925400,63.928940 
	C104.990875,64.070618 79.055199,64.009987 53.119926,63.985645 
	C51.308731,63.983940 49.497757,63.746464 47.357140,63.374813 
	C76.749542,63.131001 106.471481,63.131001 136.937119,63.131001 
	C136.937119,73.616478 136.937119,83.846779 136.662476,94.526779 
	C136.387848,94.976486 135.935257,94.920883 135.935257,94.920883 
z"/>
<path fill="#3D6788" opacity="1.000000" stroke="none" 
	d="
M47.357674,36.958298 
	C48.792233,36.620724 50.708458,36.042580 52.625965,36.038300 
	C84.098282,35.968006 115.570755,35.970089 147.724579,35.948269 
	C148.405975,35.940636 148.837570,35.921391 148.886810,36.157433 
	C148.936050,36.393478 149.010529,36.869949 149.010529,36.869949 
	C115.286995,36.908215 81.563469,36.946476 47.357674,36.958298 
z"/>
<path fill="#DFF5FD" opacity="1.000000" stroke="none" 
	d="
M420.015198,114.140938 
	C420.015198,114.140938 419.562653,113.980026 419.323242,113.957748 
	C420.569336,113.624146 422.052307,113.058029 423.540741,113.043396 
	C432.324402,112.957031 441.111633,113.125656 449.893311,112.966591 
	C461.744080,112.751930 473.591980,112.349663 485.438110,111.941093 
	C487.002228,111.887161 488.548645,111.322090 490.533142,111.061417 
	C488.544647,112.038536 486.126251,112.947998 482.877625,113.911415 
	C461.369965,114.023895 440.692596,114.082413 420.015198,114.140938 
z"/>
<path fill="#3D607C" opacity="1.000000" stroke="none" 
	d="
M135.473297,94.946381 
	C135.935257,94.920883 136.387848,94.976486 136.614929,94.993912 
	C135.326187,95.340302 133.810898,95.953300 132.294464,95.956123 
	C104.153923,96.008583 76.013245,95.988327 47.393177,95.954338 
	C48.829830,95.614555 50.745274,95.037704 52.662083,95.033119 
	C80.111732,94.967430 107.561562,94.978943 135.473297,94.946381 
z"/>
<path fill="#F3FFFF" opacity="1.000000" stroke="none" 
	d="
M206.222687,119.431602 
	C206.078430,119.017281 206.545486,118.975784 207.234024,118.976059 
	C234.610748,118.939865 261.298920,118.903389 287.987122,118.866905 
	C288.314819,119.325600 288.642517,119.784294 288.973999,120.546432 
	C287.070496,120.566025 285.164154,120.042320 283.255676,120.034508 
	C257.626282,119.929634 231.996582,119.896706 206.222687,119.431602 
z"/>
<path fill="#244968" opacity="1.000000" stroke="none" 
	d="
M142.639496,138.948395 
	C142.619843,141.977356 144.028168,143.087784 147.262909,143.048904 
	C159.183273,142.905670 171.110077,143.150116 183.025436,142.867935 
	C185.410583,142.811462 187.756134,141.082642 190.470581,140.061340 
	C189.387848,141.325317 187.975281,143.779907 186.517899,143.806808 
	C171.275604,144.088211 156.026123,143.980453 140.284531,143.980453 
	C141.088211,142.072357 141.707367,140.602325 142.639496,138.948395 
z"/>
<path fill="#254967" opacity="1.000000" stroke="none" 
	d="
M300.972290,142.473328 
	C308.504395,142.365067 316.080475,142.782196 323.662231,142.966278 
	C329.951355,143.118988 336.248291,142.926239 342.539520,143.027054 
	C345.669769,143.077209 347.237305,141.859833 347.003418,138.207153 
	C348.046692,139.541000 349.058807,141.302963 350.605927,143.996307 
	C344.458557,143.996307 339.389496,143.996109 334.320435,143.996353 
	C324.704620,143.996841 315.088348,144.044479 305.473480,143.949066 
	C303.985229,143.934280 302.503479,143.264633 300.972290,142.473328 
z"/>
<path fill="#9BB4C9" opacity="1.000000" stroke="none" 
	d="
M45.348946,143.724976 
	C45.055840,128.012360 45.191689,112.193047 45.720100,96.179840 
	C46.001076,111.863396 45.889488,127.740829 45.348946,143.724976 
z"/>
<path fill="#577E9C" opacity="1.000000" stroke="none" 
	d="
M406.898895,103.649696 
	C392.732056,104.053452 378.350983,104.067513 363.516266,104.151054 
	C363.354675,103.816566 363.647369,103.058861 363.938690,103.059387 
	C378.187408,103.085182 392.436066,103.176208 406.898895,103.649696 
z"/>
<path fill="#224768" opacity="1.000000" stroke="none" 
	d="
M3.052798,143.128922 
	C16.159143,143.052643 29.241148,143.213669 42.653122,143.619385 
	C29.965231,143.891006 16.947367,143.917908 3.464117,143.893616 
	C2.998729,143.842407 3.028458,143.366226 3.052798,143.128922 
z"/>
<path fill="#94AFC3" opacity="1.000000" stroke="none" 
	d="
M149.423676,36.729973 
	C149.010529,36.869949 148.936050,36.393478 148.952484,35.698147 
	C148.944992,24.367710 148.921066,13.732605 148.897141,3.097499 
	C148.897141,3.097499 149.364944,2.990686 149.604553,2.981309 
	C149.841721,14.177954 149.839264,25.383974 149.423676,36.729973 
z"/>
<path fill="#9AB4C9" opacity="1.000000" stroke="none" 
	d="
M46.007751,62.509064 
	C45.677620,60.496647 45.070438,58.020157 45.051773,55.539242 
	C45.006134,49.473621 45.232552,43.405952 45.749458,37.152050 
	C46.099106,45.324322 46.048763,53.683655 46.007751,62.509064 
z"/>
<path fill="#0F3E64" opacity="1.000000" stroke="none" 
	d="
M200.438843,120.139450 
	C201.515579,119.599854 202.952393,118.993263 204.666092,118.597656 
	C203.561615,119.229904 202.180267,119.651184 200.438843,120.139450 
z"/>
<path fill="#254967" opacity="1.000000" stroke="none" 
	d="
M346.757812,136.716141 
	C346.239563,136.499664 345.671234,136.000259 345.065186,135.190674 
	C345.587524,135.398041 346.147644,135.915619 346.757812,136.716141 
z"/>
<path fill="#0F3E64" opacity="1.000000" stroke="none" 
	d="
M199.365631,122.203415 
	C199.286560,121.879944 199.494766,121.526772 199.948395,120.983124 
	C200.013504,121.253006 199.833206,121.713356 199.365631,122.203415 
z"/>
<path fill="#254967" opacity="1.000000" stroke="none" 
	d="
M299.799286,140.327621 
	C300.111481,140.484863 300.513458,140.947372 300.933228,141.733383 
	C300.596985,141.582230 300.243042,141.107559 299.799286,140.327621 
z"/>
<path fill="#0E3E64" opacity="1.000000" stroke="none" 
	d="
M215.632385,3.895241 
	C215.743790,4.092087 215.589386,4.405880 215.227661,4.886726 
	C215.135757,4.706582 215.251175,4.359384 215.632385,3.895241 
z"/>
<path fill="#0E3E64" opacity="1.000000" stroke="none" 
	d="
M274.018005,4.771031 
	C273.762787,4.803641 273.516724,4.535419 273.196106,4.001595 
	C273.423431,3.980727 273.725281,4.225463 274.018005,4.771031 
z"/>
<path fill="#103B5C" opacity="1.000000" stroke="none" 
	d="
M417.753296,114.126801 
	C417.998291,114.167847 417.642395,114.451103 417.642395,114.451103 
	C417.642395,114.451103 417.212036,114.380020 417.113251,114.259674 
	C417.014465,114.139320 417.508331,114.085747 417.753296,114.126801 
z"/>
<path fill="#103B5C" opacity="1.000000" stroke="none" 
	d="
M420.349304,114.382072 
	C440.692596,114.082413 461.369965,114.023895 482.509155,114.027786 
	C482.598572,114.581619 482.223022,115.505264 481.854279,115.502563 
	C461.779968,115.355766 441.706268,115.132462 421.632599,114.902840 
	C421.315186,114.899200 420.999756,114.720314 420.349304,114.382072 
z"/>
<path fill="#577792" opacity="1.000000" stroke="none" 
	d="
M429.245697,56.279808 
	C430.698395,56.067719 432.463043,56.028576 434.654205,56.110039 
	C433.239685,56.304688 431.398682,56.378727 429.245697,56.279808 
z"/>
<path fill="#000000" opacity="1.000000" stroke="none" 
	d="
M1127.138550,96.775536 
	C1134.061523,85.364647 1141.083496,74.012283 1147.882202,62.527851 
	C1156.162964,48.540085 1164.255981,34.441177 1172.623779,20.057663 
	C1179.205078,31.073074 1185.668213,41.813808 1192.053833,52.600433 
	C1198.285645,63.127411 1204.449219,73.694908 1210.619751,84.258102 
	C1212.839478,88.057915 1214.992065,91.896935 1217.359375,96.272705 
	C1187.408447,96.810074 1157.273438,96.792801 1127.138550,96.775536 
z"/>
<path fill="#DFE1D9" opacity="1.000000" stroke="none" 
	d="
M1126.773804,96.927185 
	C1157.273438,96.792801 1187.408447,96.810074 1217.673340,96.416565 
	C1218.429199,96.582031 1219.055176,97.158279 1220.474121,98.464661 
	C1217.901611,98.624649 1216.339722,98.805489 1214.777832,98.806480 
	C1186.841919,98.824333 1158.905884,98.847687 1130.970337,98.746819 
	C1129.447876,98.741325 1127.929443,97.659592 1126.773804,96.927185 
z"/>
<path fill="#0A3C64" opacity="1.000000" stroke="none" 
	d="
M148.438202,3.039041 
	C148.921066,13.732605 148.944992,24.367710 148.903244,35.462105 
	C148.837570,35.921391 148.405975,35.940636 148.190796,35.917755 
	C147.984039,27.071060 147.747192,18.237377 148.101639,9.427485 
	C148.286102,4.842782 146.579483,3.904796 142.346268,3.917248 
	C96.229538,4.052894 50.112274,4.005371 3.534446,4.012216 
	C3.073736,4.016710 3.040209,3.592806 3.035934,3.380233 
	C13.356433,3.099995 23.681181,2.979224 34.005985,2.974162 
	C71.997070,2.955538 109.988167,2.975276 148.438202,3.039041 
z"/>
<path fill="#0E3E64" opacity="1.000000" stroke="none" 
	d="
M270.523071,3.069125 
	C270.388885,3.412628 269.792847,3.900040 269.198608,3.897859 
	C252.359680,3.836047 235.520950,3.724909 218.347412,3.380979 
	C235.362442,3.088372 252.712234,3.036610 270.523071,3.069125 
z"/>
<path fill="#0A3C64" opacity="1.000000" stroke="none" 
	d="
M3.038991,6.255320 
	C3.406219,6.202550 3.495327,6.465518 3.183970,6.896383 
	C3.052050,6.995232 3.029416,6.502007 3.038991,6.255320 
z"/>
<path fill="#0A3C64" opacity="1.000000" stroke="none" 
	d="
M3.053671,10.253293 
	C3.413083,10.203956 3.499391,10.465306 3.194932,10.890352 
	C3.065717,10.988406 3.042121,10.498339 3.053671,10.253293 
z"/>
<path fill="#0A3C64" opacity="1.000000" stroke="none" 
	d="
M664.919922,142.494537 
	C664.863708,142.956985 664.424194,142.992249 664.203552,142.994843 
	C663.988708,110.382423 663.988831,77.767418 664.015686,45.152439 
	C664.017212,43.337921 664.240234,41.523582 664.596863,39.375259 
	C664.881042,73.371613 664.928528,107.701859 664.919922,142.494537 
z"/>
<path fill="#2E526F" opacity="1.000000" stroke="none" 
	d="
M622.463501,123.702980 
	C622.171814,96.007477 622.104736,67.960236 622.131104,39.451416 
	C622.486694,40.257309 622.975342,41.524372 622.977539,42.792290 
	C623.022949,68.828827 623.015930,94.865456 623.000244,120.902054 
	C622.999756,121.718506 622.796753,122.534843 622.463501,123.702980 
z"/>
<path fill="#113F63" opacity="1.000000" stroke="none" 
	d="
M621.723511,37.788002 
	C605.956055,38.030937 589.932800,37.991581 573.442688,37.876854 
	C575.392944,37.531086 577.804382,37.104870 580.228027,37.017159 
	C590.923767,36.630081 601.621643,36.212879 612.321899,36.096645 
	C615.365051,36.063591 618.418823,37.009010 621.723511,37.788002 
z"/>
<path fill="#000000" opacity="1.000000" stroke="none" 
	d="
M217.993225,86.903679 
	C219.121872,85.373833 220.478210,83.962173 221.343246,82.295509 
	C228.493683,68.518707 235.549561,54.692825 242.648865,40.889412 
	C243.083374,40.044590 243.643555,39.264393 244.806534,37.386112 
	C253.672928,54.149288 262.149658,70.175751 270.413940,86.582794 
	C268.132416,87.307556 266.065216,87.936394 263.993988,87.949898 
	C250.213318,88.039719 236.431595,88.032654 222.650848,87.950798 
	C221.096283,87.941566 219.545670,87.268768 217.993225,86.903679 
z"/>
<path fill="#0F3E64" opacity="1.000000" stroke="none" 
	d="
M287.653442,118.624863 
	C261.298920,118.903389 234.610748,118.939865 207.457092,118.903954 
	C208.254486,118.554825 209.516876,118.039070 210.780243,118.036682 
	C235.481842,117.989838 260.183563,117.999168 284.885254,118.019447 
	C285.696869,118.020111 286.508270,118.256378 287.653442,118.624863 
z"/>
<path fill="#99B3C8" opacity="1.000000" stroke="none" 
	d="
M217.815887,87.111382 
	C219.545670,87.268768 221.096283,87.941566 222.650848,87.950798 
	C236.431595,88.032654 250.213318,88.039719 263.993988,87.949898 
	C266.065216,87.936394 268.132416,87.307556 270.625366,86.849144 
	C271.193970,87.454697 271.338684,88.174461 270.751495,88.968109 
	C252.692352,89.070496 235.365112,89.098999 218.037872,89.127510 
	C217.904770,88.524704 217.771667,87.921890 217.815887,87.111382 
z"/>
<path fill="#0A3C64" opacity="1.000000" stroke="none" 
	d="
M218.366776,89.371933 
	C235.365112,89.098999 252.692352,89.070496 270.479431,89.105797 
	C270.337769,89.425934 269.735443,89.908051 269.134979,89.905670 
	C252.321762,89.839233 235.508743,89.723770 218.366776,89.371933 
z"/>
</svg>